# xmcd CD database file
#
# Track frame offsets:
#	150
#	22450
#	41637
#	52535
#	78172
#	92657
#	133575
#	157084
#	184755
#	198942
#	216305
#	229707
#	250197
#	262495
#	276775
#	291475
#	302562
#	316920
#	330835
#
# Disc length: 4596 seconds
#
# Revision: 0
# Processed by: cddbd v1.4PL0 Copyright (c) Steve Scherf et al.
# Submitted via: CDex 1.50Beta7
#
DISCID=1211f213
DTITLE=Ramsey Lewis - Hang On Ramsey/Wade In The Water
DYEAR=1900
DGENRE=Jazz
TTITLE0=A Hard Day's Night
TTITLE1=All My Love Belongs To You
TTITLE2=He's a Real Gone Guy
TTITLE3=And  I  Love Her
TTITLE4=Movin' Easy
TTITLE5=Billy Boy/Hi-Heel-Sneakers
TTITLE6=The More  I  See You
TTITLE7=Satin Doll
TTITLE8=Hang On Sloopy
TTITLE9=Wade In The Water
TTITLE10=Ain't That Peculiar
TTITLE11=Tobacco Road
TTITLE12=Money In The Pocket
TTITLE13=Message To Michael
TTITLE14=Up Tight (Everything's Alright)
TTITLE15=Hold It Right There
TTITLE16=Day Tripper
TTITLE17=Mi Compasion
TTITLE18=Hurt So Bad
EXTD=
EXTT0=
EXTT1=
EXTT2=
EXTT3=
EXTT4=
EXTT5=
EXTT6=
EXTT7=
EXTT8=
EXTT9=
EXTT10=
EXTT11=
EXTT12=
EXTT13=
EXTT14=
EXTT15=
EXTT16=
EXTT17=
EXTT18=
PLAYORDER=
